<svg width="1600" height="1000" viewBox="0 0 1600 1000" fill="none" xmlns="http://www.w3.org/2000/svg">
  <!-- TODO: Replace with licensed procurement detail photography (Unsplash/Pexels/Pixabay). -->
  <defs>
    <linearGradient id="bg-procurement" x1="0" y1="0" x2="1" y2="1">
      <stop offset="0%" stop-color="#1A1511" />
      <stop offset="45%" stop-color="#32281F" />
      <stop offset="100%" stop-color="#120F0D" />
    </linearGradient>
    <linearGradient id="line-procurement" x1="0" y1="0" x2="1" y2="1">
      <stop offset="0%" stop-color="#F6F3EF" stop-opacity="0.2" />
      <stop offset="100%" stop-color="#F6F3EF" stop-opacity="0.6" />
    </linearGradient>
  </defs>
  <rect width="1600" height="1000" fill="url(#bg-procurement)" />
  <rect x="150" y="150" width="620" height="700" rx="36" fill="#F6F3EF" fill-opacity="0.08" />
  <rect x="840" y="150" width="610" height="700" rx="36" fill="#B6814B" fill-opacity="0.2" />
  <path d="M220 760C300 690 380 635 480 600C620 552 780 558 940 505C1080 459 1210 368 1370 220" stroke="url(#line-procurement)" stroke-width="7" stroke-linecap="round" />
  <rect x="220" y="220" width="430" height="24" rx="12" fill="#F6F3EF" fill-opacity="0.35" />
  <rect x="220" y="270" width="500" height="18" rx="9" fill="#F6F3EF" fill-opacity="0.26" />
  <circle cx="530" cy="590" r="24" fill="#D6B08A" fill-opacity="0.82" />
  <circle cx="970" cy="510" r="24" fill="#D6B08A" fill-opacity="0.74" />
  <text x="220" y="910" fill="#F6F3EF" fill-opacity="0.54" font-size="20" font-family="Arial, sans-serif" letter-spacing="4">PROCUREMENT DETAIL PLACEHOLDER</text>
</svg>
