<!-- Generated to visually represent: "Planning Set" -->
<svg width="1400" height="980" viewBox="0 0 1400 980" fill="none" xmlns="http://www.w3.org/2000/svg" role="img" aria-label="Planning set abstract architectural graphic" color="#FFF8EE">
  <g stroke="currentColor" stroke-width="2" stroke-linecap="round" stroke-linejoin="round">
    <rect x="104" y="84" width="1192" height="812" rx="26"/>
    <rect x="170" y="146" width="1060" height="688" rx="20"/>

    <rect x="232" y="232" width="364" height="484" rx="16"/>
    <rect x="282" y="276" width="364" height="484" rx="16"/>
    <rect x="332" y="320" width="364" height="484" rx="16"/>

    <path d="M706 418H866"/>
    <path d="M706 502H866"/>
    <path d="M706 586H866"/>

    <circle cx="984" cy="520" r="150"/>
    <circle cx="984" cy="520" r="94"/>

    <circle cx="984" cy="300" r="14"/>
    <circle cx="1164" cy="426" r="14"/>
    <circle cx="1164" cy="614" r="14"/>
    <circle cx="984" cy="740" r="14"/>

    <path d="M984 394V450"/>
    <path d="M1054 480H1110"/>
    <path d="M1054 560H1110"/>
    <path d="M984 590V646"/>

    <rect x="260" y="820" width="900" height="48" rx="10"/>
    <circle cx="432" cy="844" r="10"/>
    <circle cx="664" cy="844" r="10"/>
    <circle cx="896" cy="844" r="10"/>
    <circle cx="1128" cy="844" r="10"/>
  </g>
</svg>
