<!-- Generated to visually represent: "Construction Support" -->
<svg width="1400" height="980" viewBox="0 0 1400 980" fill="none" xmlns="http://www.w3.org/2000/svg" role="img" aria-label="Construction support abstract architectural graphic" color="#FFF8EE">
  <g stroke="currentColor" stroke-width="2" stroke-linecap="round" stroke-linejoin="round">
    <rect x="104" y="84" width="1192" height="812" rx="26"/>
    <rect x="170" y="146" width="1060" height="688" rx="20"/>

    <path d="M240 522H1160"/>

    <circle cx="240" cy="522" r="24"/>
    <circle cx="470" cy="522" r="24"/>
    <circle cx="700" cy="522" r="24"/>
    <circle cx="930" cy="522" r="24"/>
    <circle cx="1160" cy="522" r="24"/>

    <path d="M240 498V326"/>
    <path d="M470 498V286"/>
    <path d="M700 498V246"/>
    <path d="M930 498V286"/>
    <path d="M1160 498V326"/>

    <rect x="198" y="300" width="84" height="28" rx="8"/>
    <rect x="428" y="260" width="84" height="28" rx="8"/>
    <rect x="658" y="220" width="84" height="28" rx="8"/>
    <rect x="888" y="260" width="84" height="28" rx="8"/>
    <rect x="1118" y="300" width="84" height="28" rx="8"/>

    <path d="M292 712C460 812 940 812 1108 712"/>
    <path d="M336 662C492 744 908 744 1064 662"/>

    <circle cx="700" cy="522" r="116"/>
    <path d="M700 406V638"/>
    <path d="M584 522H816"/>
  </g>
</svg>
